<svg width="60" height="60" viewBox="0 0 60 60" fill="none" xmlns="http://www.w3.org/2000/svg">
<rect width="60" height="60" rx="30" fill="#A4A0A0"/>
<path d="M30 30C32.8795 30 35.6411 28.9464 37.6772 27.0711C39.7133 25.1957 40.8571 22.6522 40.8571 20C40.8571 17.3478 39.7133 14.8043 37.6772 12.9289C35.6411 11.0536 32.8795 10 30 10C27.1205 10 24.3589 11.0536 22.3228 12.9289C20.2867 14.8043 19.1429 17.3478 19.1429 20C19.1429 22.6522 20.2867 25.1957 22.3228 27.0711C24.3589 28.9464 27.1205 30 30 30ZM26.1237 33.75C17.7688 33.75 11 39.9844 11 47.6797C11 48.9609 12.1281 50 13.5192 50H46.4808C47.8719 50 49 48.9609 49 47.6797C49 39.9844 42.2313 33.75 33.8763 33.75H26.1237Z" fill="#F2E9E9"/>
</svg>
