<svg width="28" height="26" viewBox="0 0 28 26" fill="none" xmlns="http://www.w3.org/2000/svg">
<path d="M0 2.16667C0 0.968229 0.89375 0 2 0H26C27.1063 0 28 0.968229 28 2.16667C28 3.3651 27.1063 4.33333 26 4.33333H2C0.89375 4.33333 0 3.3651 0 2.16667ZM0 13C0 11.8016 0.89375 10.8333 2 10.8333H26C27.1063 10.8333 28 11.8016 28 13C28 14.1984 27.1063 15.1667 26 15.1667H2C0.89375 15.1667 0 14.1984 0 13ZM28 23.8333C28 25.0318 27.1063 26 26 26H2C0.89375 26 0 25.0318 0 23.8333C0 22.6349 0.89375 21.6667 2 21.6667H26C27.1063 21.6667 28 22.6349 28 23.8333Z" fill="#0B1924"/>
</svg>
