<svg width="1289" height="694" viewBox="0 0 1289 694" fill="none" xmlns="http://www.w3.org/2000/svg">
<g filter="url(#filter0_i_17_20)">
<path d="M38.6226 522V107.083L120.834 93.8408V232.882C126.351 231.043 133.34 229.388 141.8 227.916C150.628 226.077 159.088 225.158 167.181 225.158C190.722 225.158 210.217 228.468 225.666 235.089C241.483 241.342 253.99 250.354 263.186 262.125C272.749 273.896 279.37 287.873 283.049 304.058C287.095 320.243 289.118 338.267 289.118 358.13V522H206.907V368.061C206.907 341.577 203.412 322.818 196.424 311.783C189.803 300.748 177.296 295.23 158.904 295.23C151.548 295.23 144.559 295.966 137.938 297.437C131.685 298.541 125.983 299.828 120.834 301.299V522H38.6226ZM349.737 379.096C349.737 353.348 353.599 330.91 361.324 311.783C369.416 292.287 379.9 276.103 392.774 263.228C405.648 250.354 420.361 240.607 436.914 233.986C453.834 227.365 471.123 224.054 488.779 224.054C529.976 224.054 562.529 236.744 586.439 262.125C610.348 287.138 622.303 324.105 622.303 373.027C622.303 377.809 622.119 383.143 621.751 389.028C621.383 394.545 621.015 399.511 620.647 403.925H434.155C435.994 420.846 443.903 434.271 457.881 444.203C471.858 454.135 490.618 459.1 514.159 459.1C529.24 459.1 543.954 457.813 558.299 455.238C573.013 452.295 584.967 448.801 594.163 444.755L605.198 511.517C600.784 513.724 594.899 515.931 587.542 518.138C580.185 520.345 571.909 522.184 562.713 523.655C553.885 525.494 544.322 526.966 534.022 528.069C523.723 529.173 513.424 529.725 503.124 529.725C477.008 529.725 454.202 525.862 434.707 518.138C415.58 510.413 399.579 499.93 386.705 486.688C374.198 473.078 364.818 457.077 358.565 438.686C352.68 420.294 349.737 400.431 349.737 379.096ZM542.85 347.646C542.482 340.658 541.195 333.853 538.988 327.232C537.149 320.611 534.022 314.725 529.608 309.576C525.562 304.426 520.228 300.196 513.607 296.885C507.354 293.575 499.446 291.92 489.882 291.92C480.686 291.92 472.778 293.575 466.157 296.885C459.536 299.828 454.018 303.874 449.604 309.024C445.19 314.174 441.696 320.243 439.121 327.232C436.914 333.853 435.259 340.658 434.155 347.646H542.85ZM943.413 231.779C926.861 287.689 909.573 340.106 891.549 389.028C873.525 437.95 853.846 485.4 832.511 531.38C824.787 547.932 817.062 561.91 809.338 573.313C801.613 585.084 793.153 594.647 783.957 602.004C774.761 609.729 764.278 615.246 752.507 618.557C741.104 622.235 727.678 624.074 712.229 624.074C699.355 624.074 687.401 622.787 676.366 620.212C665.698 618.005 656.87 615.43 649.881 612.487L664.227 546.829C672.687 549.771 680.228 551.795 686.849 552.898C693.47 554.002 700.459 554.553 707.815 554.553C722.529 554.553 733.748 550.507 741.472 542.415C749.565 534.69 756.369 523.839 761.887 509.861C743.127 473.078 724.368 431.881 705.608 386.269C686.849 340.29 669.193 288.793 652.64 231.779H739.817C743.495 246.124 747.725 261.757 752.507 278.678C757.657 295.23 762.991 312.15 768.508 329.439C774.026 346.359 779.543 362.912 785.061 379.096C790.946 395.281 796.463 409.994 801.613 423.236C806.395 409.994 811.361 395.281 816.51 379.096C821.66 362.912 826.626 346.359 831.408 329.439C836.557 312.15 841.339 295.23 845.753 278.678C850.535 261.757 854.765 246.124 858.444 231.779H943.413Z" fill="#1A374D"/>
</g>
<g filter="url(#filter1_i_17_20)">
<path d="M986 238.219C986 201.296 1001.96 165.885 1030.37 139.776C1058.79 113.668 1097.32 99 1137.5 99C1177.68 99 1216.21 113.668 1244.63 139.776C1273.04 165.885 1289 201.296 1289 238.219C1289 275.142 1273.04 310.553 1244.63 336.661C1216.21 362.77 1177.68 377.438 1137.5 377.438C1097.32 377.438 1058.79 362.77 1030.37 336.661C1001.96 310.553 986 275.142 986 238.219ZM1137.5 176.344C1146.76 176.344 1154.33 169.383 1154.33 160.875C1154.33 152.367 1146.76 145.406 1137.5 145.406C1081.74 145.406 1036.5 186.979 1036.5 238.219C1036.5 246.727 1044.07 253.688 1053.33 253.688C1062.59 253.688 1070.17 246.727 1070.17 238.219C1070.17 204.091 1100.36 176.344 1137.5 176.344ZM1103.83 563.062V405.571C1114.77 407.408 1126.03 408.375 1137.5 408.375C1148.97 408.375 1160.22 407.408 1171.17 405.571V563.062C1171.17 580.175 1156.12 594 1137.5 594C1118.88 594 1103.83 580.175 1103.83 563.062Z" fill="#1A374D"/>
</g>
<defs>
<filter id="filter0_i_17_20" x="38.6226" y="93.8408" width="919.491" height="544.933" filterUnits="userSpaceOnUse" color-interpolation-filters="sRGB">
<feFlood flood-opacity="0" result="BackgroundImageFix"/>
<feBlend mode="normal" in="SourceGraphic" in2="BackgroundImageFix" result="shape"/>
<feColorMatrix in="SourceAlpha" type="matrix" values="0 0 0 0 0 0 0 0 0 0 0 0 0 0 0 0 0 0 127 0" result="hardAlpha"/>
<feOffset dx="43" dy="37"/>
<feGaussianBlur stdDeviation="7.35"/>
<feComposite in2="hardAlpha" operator="arithmetic" k2="-1" k3="1"/>
<feColorMatrix type="matrix" values="0 0 0 0 0 0 0 0 0 0 0 0 0 0 0 0 0 0 0.25 0"/>
<feBlend mode="normal" in2="shape" result="effect1_innerShadow_17_20"/>
</filter>
<filter id="filter1_i_17_20" x="986" y="99" width="315.5" height="503" filterUnits="userSpaceOnUse" color-interpolation-filters="sRGB">
<feFlood flood-opacity="0" result="BackgroundImageFix"/>
<feBlend mode="normal" in="SourceGraphic" in2="BackgroundImageFix" result="shape"/>
<feColorMatrix in="SourceAlpha" type="matrix" values="0 0 0 0 0 0 0 0 0 0 0 0 0 0 0 0 0 0 127 0" result="hardAlpha"/>
<feOffset dx="20" dy="8"/>
<feGaussianBlur stdDeviation="6.25"/>
<feComposite in2="hardAlpha" operator="arithmetic" k2="-1" k3="1"/>
<feColorMatrix type="matrix" values="0 0 0 0 0 0 0 0 0 0 0 0 0 0 0 0 0 0 0.25 0"/>
<feBlend mode="normal" in2="shape" result="effect1_innerShadow_17_20"/>
</filter>
</defs>
</svg>
